<?xml version="1.0" encoding="UTF-8" standalone="no"?>
<!-- Created with Inkscape (http://www.inkscape.org/) -->

<svg
   xmlns:dc="http://purl.org/dc/elements/1.1/"
   xmlns:cc="http://creativecommons.org/ns#"
   xmlns:rdf="http://www.w3.org/1999/02/22-rdf-syntax-ns#"
   xmlns:svg="http://www.w3.org/2000/svg"
   xmlns="http://www.w3.org/2000/svg"
   xmlns:sodipodi="http://sodipodi.sourceforge.net/DTD/sodipodi-0.dtd"
   xmlns:inkscape="http://www.inkscape.org/namespaces/inkscape"
   width="48.661964mm"
   height="51.543865mm"
   viewBox="0 0 172.42428 182.63574"
   id="svg2"
   version="1.1"
   inkscape:version="0.91 r13725"
   sodipodi:docname="duckWithKnife.svg">
  <defs
     id="defs4" />
  <sodipodi:namedview
     id="base"
     pagecolor="#ffffff"
     bordercolor="#666666"
     borderopacity="1.0"
     inkscape:pageopacity="0.0"
     inkscape:pageshadow="2"
     inkscape:zoom="0.7"
     inkscape:cx="-348.50614"
     inkscape:cy="169.79918"
     inkscape:document-units="px"
     inkscape:current-layer="layer1"
     showgrid="false"
     fit-margin-top="0"
     fit-margin-left="0"
     fit-margin-right="0"
     fit-margin-bottom="0"
     inkscape:window-width="1920"
     inkscape:window-height="1017"
     inkscape:window-x="-8"
     inkscape:window-y="-8"
     inkscape:window-maximized="1" />
  <metadata
     id="metadata7">
    <rdf:RDF>
      <cc:Work
         rdf:about="">
        <dc:format>image/svg+xml</dc:format>
        <dc:type
           rdf:resource="http://purl.org/dc/dcmitype/StillImage" />
        <dc:title></dc:title>
      </cc:Work>
    </rdf:RDF>
  </metadata>
  <g
     inkscape:label="Layer 1"
     inkscape:groupmode="layer"
     id="layer1"
     transform="translate(-862.38848,-443.38081)">
    <g
       id="g4147"
       transform="translate(1951.4286,-60)">
      <path
         style="fill:#f2d48a"
         d="m -1046.9358,684.37902 c -7.4041,-3.46441 -10.727,-9.73432 -7.9771,-15.05196 0.8839,-1.70923 1.2353,-3.1077 0.781,-3.1077 -1.817,0 -12.5482,-10.58518 -16.2348,-16.01396 -4.1201,-6.06722 -6.1418,-10.57778 -8.0213,-17.89636 -0.623,-2.42568 -2.4712,-6.07596 -4.1072,-8.11174 -10.0729,-12.53445 -8.2051,-42.70264 3.4454,-55.64761 2.3351,-2.59458 3.6831,-5.28213 4.1783,-8.33033 1.1104,-6.8361 6.0087,-18.77573 10.5421,-25.69649 13.0041,-19.85258 38.3376,-32.63662 61.4344,-31.00165 16.9522,1.20002 32.12406,8.27385 44.63365,20.81031 6.2431,6.25651 8.50549,9.46214 12.70357,18 4.80806,9.77839 8.20058,21.54245 8.20058,28.43671 0,1.58148 1.4322,4.2943 3.58583,6.79216 8.88929,10.31008 18.30347,36.33408 17.04117,47.10759 -1.14611,9.78184 -7.39405,11.59051 -15.73703,4.5556 l -4.88997,-4.12328 0,2.95419 c 0,7.76554 -5.81081,20.4215 -13.23387,28.8234 -2.75228,3.11521 -3.42508,4.74109 -3.55876,8.6 -0.38452,11.10013 -9.33089,18.74586 -21.92525,18.73772 -5.55827,-0.004 -11.58875,-2.3723 -13.43757,-5.27813 -0.40494,-0.63646 -7.33032,-1.0661 -18.12025,-1.12416 -16.3051,-0.0877 -17.5232,0.0336 -18.3446,1.82759 -2.6694,5.83064 -13.4261,8.26244 -20.9583,4.7381 z m 22.9831,-54.31417 c -0.4354,-0.70454 -0.275,-0.88349 0.4116,-0.45913 2.6883,1.66143 12.8017,-6.7567 16.2589,-13.53346 1.0588,-2.07527 1.925,-4.01615 1.925,-4.31306 0,-0.29691 -9.45,-0.53984 -21,-0.53984 l -21,0 0,5.91111 c 0,5.44039 0.2588,6.12923 3.25,8.65029 1.7875,1.50655 4.6,3.32894 6.25,4.04975 3.8603,1.68637 14.9171,1.87272 13.9045,0.23434 z"
         id="path4159"
         inkscape:connector-curvature="0" />
      <path
         style="fill:#facd69"
         d="m -1045.8128,684.68401 c -7.8666,-2.9877 -11.4471,-9.01813 -8.987,-15.13661 1.2381,-3.07925 1.1672,-3.24688 -2.4241,-5.73564 -9.102,-6.30771 -16.7634,-17.2721 -20.3283,-29.0924 -1.1612,-3.85 -3.1324,-8.23048 -4.3804,-9.7344 -8.4625,-10.19731 -9.1395,-34.64321 -1.3805,-49.85197 1.0232,-2.00561 3.1037,-5.12427 4.6234,-6.93035 1.6924,-2.01129 3.4499,-6.03496 4.5354,-10.38353 0.9747,-3.90486 3.8734,-11.36497 6.4415,-16.57802 8.6456,-17.54993 24.8358,-30.58824 44.3556,-35.72055 10.3558,-2.72284 26.44038,-2.21702 36.5,1.14784 26.65258,8.91505 44.44951,30.43693 48.59109,58.76134 1.04321,7.13459 1.71753,8.87146 5.11095,13.16446 4.80087,6.07355 11.95693,20.88391 14.31429,29.62518 2.3555,8.7344 2.43172,18.90414 0.16758,22.35966 -3.13208,4.78017 -9.50902,3.29175 -15.93391,-3.71908 l -2.75,-3.0008 0,3.71166 c 0,4.4361 -3.32575,14.77437 -6.32081,19.64856 -1.18286,1.925 -4.00694,5.77925 -6.27575,8.56501 -3.49853,4.29567 -4.19683,5.93001 -4.59736,10.75984 -0.36517,4.40345 -1.15154,6.53411 -3.46783,9.39596 -7.51399,9.28378 -22.38087,11.25845 -30.12728,4.0016 -2.15459,-2.01843 -3.30687,-2.14666 -19.62007,-2.18339 -16.144,-0.0363 -17.3913,0.0926 -18.211,1.88254 -2.4998,5.45904 -12.228,7.93238 -19.8355,5.04309 z m 24.4556,-12.46465 c -1.375,-0.44035 -3.625,-0.79225 -5,-0.78201 -2.2456,0.0167 -2.1947,0.0963 0.5,0.78201 1.65,0.41985 3.9,0.77176 5,0.78201 1.5672,0.0146 1.459,-0.15463 -0.5,-0.78201 z m 32,0 c 1.95899,-0.62738 2.0672,-0.79661 0.5,-0.78201 -1.1,0.0103 -3.35,0.36216 -5,0.78201 -2.69471,0.68569 -2.7456,0.76527 -0.5,0.78201 1.375,0.0102 3.625,-0.34166 5,-0.78201 z m -41.5,-2 c -1.1,-0.47269 -2.675,-0.85943 -3.5,-0.85943 -0.9455,0 -0.7606,0.31771 0.5,0.85943 1.1,0.47269 2.675,0.85943 3.5,0.85943 0.9455,0 0.7606,-0.31771 -0.5,-0.85943 z m 47.22917,0.39583 c -0.3323,-0.33229 -1.1948,-0.36781 -1.91667,-0.0789 -0.79773,0.31922 -0.56078,0.55618 0.60417,0.60416 1.05416,0.0434 1.64479,-0.19293 1.3125,-0.52522 z m -52.72917,-2.39583 c 0,-0.55 -0.1984,-1 -0.441,-1 -0.2425,0 -0.7191,0.45 -1.059,1 -0.3399,0.55 -0.1415,1 0.441,1 0.5824,0 1.059,-0.45 1.059,-1 z m 61,-0.5 c 1.375,-0.78602 2.05,-1.42913 1.5,-1.42913 -0.55,0 -2.125,0.64311 -3.5,1.42913 -1.375,0.78602 -2.05,1.42913 -1.5,1.42913 0.55,0 2.125,-0.64311 3.5,-1.42913 z m -66,-1 c -1.375,-0.78602 -2.95,-1.42913 -3.5,-1.42913 -0.55,0 0.125,0.64311 1.5,1.42913 1.375,0.78602 2.95,1.42913 3.5,1.42913 0.55,0 -0.125,-0.64311 -1.5,-1.42913 z m -5.5,-2.5 c -0.3399,-0.55 -1.154,-0.99311 -1.809,-0.98469 -0.7156,0.009 -0.5923,0.40223 0.309,0.98469 1.9211,1.24153 2.2673,1.24153 1.5,0 z m -4.2562,-2.72231 c -0.691,-0.24668 -1.0483,-0.78508 -0.794,-1.19643 0.2542,-0.41136 -0.1677,-0.74793 -0.9377,-0.74793 -3.4932,0 -11.1062,-8.77174 -17.2133,-19.83333 -1.2146,-2.2 -2.2288,-3.64754 -2.2536,-3.21676 -0.074,1.2784 4.595,9.94432 7.3898,13.71676 3.0817,4.15951 13.7199,13.20138 14.5112,12.33359 0.3046,-0.33407 -0.011,-0.80923 -0.7024,-1.0559 z m 97.7562,-8.89594 c 4.49674,-4.87534 2.13203,-3.05081 -5.5,4.24362 -3.76749,3.60085 -4.51166,4.5842 -2,2.64283 2.2,-1.70047 5.575,-4.79937 7.5,-6.88645 z m 7.07272,-9.5243 c 1.12428,-2.20377 1.90535,-4.344 1.73571,-4.75608 -0.16964,-0.41208 -1.49721,1.64299 -2.95017,4.56681 -1.45296,2.92382 -2.23403,5.06406 -1.73571,4.75608 0.49832,-0.30798 1.82589,-2.36304 2.95017,-4.56681 z m -85.07272,-6.83172 c -5.52,-0.71462 -10.9869,-2.94026 -14.25,-5.80131 -1.0611,-0.93038 -1.75,-1.08984 -1.75,-0.40509 0,2.57641 10.9011,7.04807 17,6.97347 4.4883,-0.0549 4.4857,-0.0569 -1,-0.76707 z m 9.5265,-0.8326 c -0.3079,-0.30789 -1.1148,-6.4e-4 -1.7932,0.68278 -0.9802,0.98762 -0.8654,1.10248 0.5598,0.5598 0.9862,-0.37553 1.5412,-0.93469 1.2334,-1.24258 z m -50.1337,-2.61184 c -0.2926,-0.7625 0.7775,-2.27845 2.4481,-3.46798 2.3747,-1.69095 4.6358,-2.15353 11.3135,-2.31455 l 8.3456,-0.20125 -7.8406,-0.34245 c -7.3567,-0.32131 -13.6594,1.04341 -13.6594,2.95767 0,0.39847 -0.675,0.46548 -1.5,0.1489 -1.6335,-0.62682 -1.7868,-0.0335 -0.8727,3.37712 0.3301,1.23132 0.9793,2.00441 1.4427,1.71798 0.4635,-0.28643 0.6087,-1.13038 0.3228,-1.87544 z m 56.4384,0.38965 c 4.0882,-2.13084 10.4591,-8.56592 11.5391,-11.65514 0.4057,-1.16058 -0.055,-0.91368 -1.2758,0.6842 -3.9079,5.11333 -5.7146,6.80409 -10.5403,9.86396 -5.6275,3.56834 -5.4911,4.11351 0.277,1.10698 z m 72.83108,-3.22094 c -0.27741,-0.6875 -0.50439,-0.125 -0.50439,1.25 0,1.375 0.22698,1.9375 0.50439,1.25 0.27741,-0.6875 0.27741,-1.8125 0,-2.5 z m -78.16228,-0.23239 c 4.6792,-1.89434 9.3473,-6.32315 12.5494,-11.90598 1.6125,-2.8114 2.9361,-5.44913 2.9412,-5.86163 0.01,-0.4125 -9.4406,-0.75 -20.9906,-0.75 l -21,0 0,5.81291 c 0,5.05289 0.3596,6.14826 2.75,8.37781 6.7967,6.33922 15.0605,7.84477 23.75,4.32689 z m 99.04324,-2.83388 c 0.31974,-1.27395 0.40943,-4.53645 0.1993,-7.25 -0.36997,-4.77775 -0.38774,-4.73952 -0.56229,1.20928 -0.22411,7.63779 -1.77456,8.58531 -6.68063,4.08268 -1.92479,-1.76651 -3.49962,-3.66921 -3.49962,-4.22822 0,-0.55901 -0.9808,-1.62889 -2.17955,-2.37753 -1.68039,-1.04942 -1.43524,-0.42139 1.07041,2.74226 3.77452,4.76572 7.80427,8.1378 9.72495,8.1378 0.74035,0 1.60769,-1.04232 1.92743,-2.31627 z m -19.85391,-4.43373 c -0.25153,-0.9625 -0.45733,-0.175 -0.45733,1.75 0,1.925 0.2058,2.7125 0.45733,1.75 0.25152,-0.9625 0.25152,-2.5375 0,-3.5 z m -127.90123,0 c 2.8431,-2.47577 5.6925,-7.25 4.3269,-7.25 -0.6132,0 -1.115,0.675 -1.115,1.5 0,0.825 -0.45,1.55625 -1,1.625 -0.55,0.0687 -1.4125,0.18125 -1.9167,0.25 -0.5041,0.0687 -1.2916,0.53465 -1.75,1.03533 -0.4793,0.52363 -0.3317,0.6229 0.3476,0.23368 0.6495,-0.37215 1.4229,-0.2851 1.7186,0.19345 0.5068,0.82002 -3.4705,3.16254 -5.3696,3.16254 -0.4818,0 -2.2607,-1.38462 -3.953,-3.07692 -3.6405,-3.64057 -4.1798,-2.40522 -0.6246,1.4309 2.8353,3.05942 6.4527,3.4066 9.3358,0.89602 z m 69.2119,-6.25 c 0,-0.55 -0.45,-1 -1,-1 -0.55,0 -1,0.45 -1,1 0,0.55 0.45,1 1,1 0.55,0 1,-0.45 1,-1 z m -82.1147,-7.05859 c -0.5858,-3.54278 -0.8285,-10.26641 -0.5391,-14.94141 0.4334,-7.004 0.3472,-7.796 -0.49,-4.5 -1.5554,6.12439 -0.098,28.07459 1.7426,26.23454 0.1934,-0.19345 -0.1276,-3.25036 -0.7135,-6.79313 z m 20.0291,1.05859 c -0.036,-0.98906 -0.3477,-0.81874 -0.9144,0.5 -1.1813,2.74909 -1.1813,4.32797 0,2.5 0.5332,-0.825 0.9446,-2.175 0.9144,-3 z m 139.76871,1.8125 c -0.31922,-0.79773 -0.55618,-0.56078 -0.60416,0.60417 -0.0434,1.05416 0.19292,1.64479 0.52522,1.3125 0.33229,-0.3323 0.36781,-1.1948 0.0789,-1.91667 z m -75.68311,-1.3125 c 0,-0.825 -0.45,-1.5 -1,-1.5 -0.55,0 -1,0.675 -1,1.5 0,0.825 0.45,1.5 1,1.5 0.55,0 1,-0.675 1,-1.5 z m 74.10503,-4.58048 c -0.89734,-2.27119 -0.94519,-2.22354 -0.78049,0.77713 0.0965,1.75816 0.52668,2.84695 0.95594,2.41952 0.42927,-0.42743 0.35031,-1.86592 -0.17545,-3.19665 z m -135.51433,-0.66216 c -0.6935,-0.69349 -2.5907,0.71555 -2.5907,1.9241 0,0.6631 0.5738,0.58723 1.5242,-0.20152 0.8383,-0.69572 1.3182,-1.47088 1.0665,-1.72258 z m 59.95042,0.80917 c -0.36252,-0.58659 -1.64512,-1.0599 -2.85012,-1.05179 -2.1013,0.0141 -2.0887,0.0687 0.309,1.33224 2.74461,1.44641 3.55322,1.35717 2.54112,-0.28045 z m -43.67122,-0.60314 c 0.3207,-0.32061 -1.7927,-0.47452 -4.6964,-0.34203 -2.9036,0.13249 -5.5169,0.62519 -5.8071,1.09489 -0.5736,0.92806 9.5481,0.20257 10.5035,-0.75286 z m 14.3801,-0.16912 c -1.2375,-0.23836 -3.2625,-0.23836 -4.5,0 -1.2375,0.23835 -0.225,0.43337 2.25,0.43337 2.475,0 3.4875,-0.19502 2.25,-0.43337 z m 17.0138,0.002 c -1.23,-0.23736 -3.48,-0.24351 -5,-0.0136 -1.5201,0.22985 -0.5138,0.42406 2.2362,0.43157 2.75,0.008 3.9937,-0.18056 2.7638,-0.41792 z m -37.2956,-5.7372 c 0.017,-0.51762 -0.6289,-0.0676 -1.4364,1 -0.8075,1.06762 -1.4825,2.36464 -1.5,2.88226 -0.018,0.51762 0.6289,0.0676 1.4364,-1 0.8075,-1.06762 1.4825,-2.36464 1.5,-2.88226 z m 121.6501,-3.22066 c -0.84603,-1.56113 -1.55624,-2.52208 -1.57826,-2.13546 -0.0677,1.18867 2.25876,5.83158 2.70066,5.38968 0.2287,-0.2287 -0.27638,-1.6931 -1.1224,-3.25422 z m -124.4907,-2.08841 c 1.2438,-1.58606 1.2085,-1.62143 -0.3776,-0.37755 -0.9625,0.75484 -1.75,1.54234 -1.75,1.75 0,0.82303 0.8212,0.2933 2.1276,-1.37245 z m 121.47429,-4 c -2.21072,-4.19429 -4.5158,-7.03415 -4.26135,-5.25 0.20005,1.40279 4.63107,8 5.3732,8 0.18569,0 -0.31464,-1.2375 -1.11185,-2.75 z m -149.24959,-9.48897 c -0.2587,-0.41857 0.01,-0.76103 0.5887,-0.76103 0.5824,0 1.059,-0.91899 1.059,-2.04221 0,-2.11267 0.6888,-3.15835 5.1045,-7.7497 1.7145,-1.7826 3.0166,-4.75858 3.8102,-8.70809 1.4822,-7.37619 4.9187,-16.61726 6.7348,-18.11024 0.7428,-0.61064 1.3505,-1.62314 1.3505,-2.25 0,-0.62687 0.4766,-1.13976 1.059,-1.13976 0.5825,0 0.7687,-0.46971 0.4139,-1.0438 -0.8546,-1.38289 1.4642,-4.1131 2.7949,-3.29068 0.6047,0.3737 0.7421,0.15945 0.3277,-0.51101 -0.3924,-0.63498 -0.2673,-1.15451 0.2781,-1.15451 0.5454,0 1.2961,-0.95946 1.6683,-2.13213 0.5439,-1.7135 0.8701,-1.86076 1.6618,-0.75 0.7846,1.10095 0.8793,1.04927 0.4657,-0.254 -0.5237,-1.65018 8.1333,-10.36387 10.2965,-10.36387 0.5687,0 0.9957,-0.39969 0.9487,-0.8882 -0.1155,-1.20094 2.283,-2.60772 3.3362,-1.95679 0.4655,0.28768 0.262,1.23028 -0.4522,2.09467 -1.1641,1.40889 -1.0682,1.42815 0.9264,0.18602 1.3891,-0.86504 1.8718,-1.73887 1.2848,-2.32586 -0.587,-0.58699 -0.2958,-1.45858 0.775,-2.31988 0.9434,-0.75881 -0.085,-0.4923 -2.2848,0.59224 -15.0688,7.42849 -28.9562,26.64428 -32.5735,45.07127 -0.9955,5.07152 -1.9985,7.1852 -4.6838,9.87054 -1.8794,1.87939 -4.2779,5.42514 -5.3299,7.87944 -2.2549,5.26047 -2.4877,7.46506 -0.5015,4.74871 0.7763,-1.06156 1.1997,-2.27257 0.941,-2.69113 z m 78.5644,1.87893 c -0.2292,-0.19802 -3.3417,-0.61877 -6.9167,-0.93499 -4.0241,-0.35595 -5.7382,-0.24558 -4.5,0.28975 1.8954,0.81948 12.2988,1.40745 11.4167,0.64524 z m 6.35233,-0.2959 c -0.67703,-0.27392 -2.02703,-0.29059 -3,-0.037 -0.97297,0.25354 -0.41903,0.47766 1.23097,0.49804 1.65,0.0204 2.44606,-0.18706 1.76903,-0.46099 z m 12.23097,-2.72559 c 4.0552,-2.14771 6.4104,-4.35266 6.4682,-6.05556 0.0175,-0.5154 -1.2057,0.19013 -2.7182,1.56786 -3.83122,3.48981 -7.85578,5.86645 -9.96482,5.88454 -0.98185,0.008 -2.46018,0.4578 -3.28518,0.99861 -2.85274,1.87004 5.35274,-0.19899 9.5,-2.39545 z m 45.92377,1.13153 c -2.45033,-2.92292 -6.58216,-6.75 -7.28752,-6.75 -0.30396,0 1.43472,2.025 3.86375,4.5 4.67786,4.76639 6.5827,6.0182 3.42377,2.25 z m -78.42377,-0.13337 c 0,-0.21085 -0.9006,-0.61889 -2.0014,-0.90674 -1.1007,-0.28786 -1.7492,-0.11534 -1.441,0.38337 0.5383,0.87091 3.4424,1.31244 3.4424,0.52337 z m -8.8038,-4.91424 c -4.1058,-4.23606 -4.1899,-7.86257 -0.2731,-11.77931 1.6077,-1.60769 2.4872,-2.92308 1.9545,-2.92308 -0.5327,0 -2.0731,1.10454 -3.4231,2.45454 -3.561,3.56102 -3.2866,8.0917 0.7417,12.24785 1.7579,1.81369 3.4211,3.29761 3.6961,3.29761 0.275,0 -0.9382,-1.48392 -2.6961,-3.29761 z m 47.29598,-8.86218 c -0.3052,-0.79533 -1.9725,-2.28344 -3.70511,-3.30692 l -3.15021,-1.86088 3.41887,3.59316 c 3.51313,3.69223 4.40605,4.10138 3.43645,1.57464 z m 33.488,-5.92281 c -1.64872,-6.87265 -2.25805,-5.6346 -0.80002,1.62549 0.64907,3.23194 1.36585,5.31907 1.59286,4.63806 0.227,-0.68101 -0.12978,-3.4996 -0.79284,-6.26355 z m -87.35208,4.48419 c 2.0839,-0.55924 4.9709,-5.13595 3.9093,-6.19748 -0.2956,-0.29559 -0.5374,-0.03 -0.5374,0.59027 0,1.96013 -4.2768,5.20562 -6.8598,5.20562 -5.6963,0 -8.3753,-7.76493 -4.1402,-12 2.3605,-2.36051 7.2361,-2.62104 9.3571,-0.5 0.825,0.825 1.8697,1.48503 2.3215,1.46673 2.5135,-0.1018 -4.4397,-3.96673 -7.1364,-3.96673 -4.7771,0 -7.6533,2.96517 -7.7222,7.96109 -0.092,6.65369 3.7878,9.32449 10.8081,7.4405 z m 63.60761,-3.68032 c 0.95465,-0.0824 1.39858,-0.48698 0.98653,-0.89903 -0.41206,-0.41206 -2.54313,-0.0724 -4.73572,0.75486 -2.92934,1.10519 -3.19096,1.3436 -0.98652,0.89903 1.65,-0.33275 3.78107,-0.67244 4.73571,-0.75486 z m -17.51507,-1.33397 c -2.45743,-2.45743 -27.86274,-4.58436 -29.18594,-2.44344 -0.3562,0.57639 2.054,0.72796 6.191,0.38933 3.7259,-0.30499 9.4743,-0.0236 12.7743,0.62521 3.3,0.64885 6.54948,1.28563 7.22106,1.41506 0.67158,0.12942 1.53408,0.54834 1.91666,0.93093 0.38259,0.38259 0.92061,0.47061 1.19561,0.19561 0.275,-0.275 0.22429,-0.77571 -0.11269,-1.1127 z m 6.68845,-0.8873 c -1.375,-1.375 -2.78299,-2.5 -3.12886,-2.5 -0.34587,0 0.42802,1.125 1.71977,2.5 1.29175,1.375 2.69973,2.5 3.12886,2.5 0.42913,0 -0.34477,-1.125 -1.71977,-2.5 z m -38.67989,-0.10417 c -0.3323,-0.33229 -1.1948,-0.36781 -1.9167,-0.0789 -0.7977,0.31923 -0.5608,0.55619 0.6042,0.60417 1.0541,0.0434 1.6448,-0.19293 1.3125,-0.52522 z m 51.65236,-1.94777 c 0.34149,-0.88992 0.17385,-1.29132 -0.39301,-0.94098 -0.5437,0.33602 -0.98855,1.0344 -0.98855,1.55194 0,1.43843 0.71677,1.12146 1.38156,-0.61096 z m 18.6233,-6.93527 c -1.50255,-3.95202 -2.26051,-2.54458 -0.83375,1.5482 0.64907,1.86192 1.34087,2.90306 1.53735,2.31364 0.19647,-0.58942 -0.12015,-2.32725 -0.7036,-3.86184 z m -20.11883,-1.63364 c -1.31232,-1.00908 -3.06103,-1.83444 -3.88603,-1.83414 -0.825,2.9e-4 -0.0438,0.71844 1.73601,1.59589 1.77981,0.87744 2.94778,2.06173 2.59549,2.63174 -0.39488,0.63894 -0.14561,0.73051 0.65002,0.23878 0.96976,-0.59935 0.69746,-1.25363 -1.09549,-2.63227 z m -95.20293,-0.0666 c -0.3192,-0.79773 -0.5562,-0.56078 -0.6042,0.60417 -0.043,1.05416 0.193,1.64479 0.5253,1.3125 0.3323,-0.3323 0.3678,-1.1948 0.079,-1.91667 z m 86.80461,-1.64352 c -0.59692,-0.62447 -4.48771,1.90097 -4.48771,2.91289 0,0.55632 1.08093,0.20299 2.40206,-0.78519 1.32113,-0.98817 2.25967,-1.94564 2.08565,-2.1277 z m 23.8247,-6.40751 c -3.90502,-7.27368 -15.86781,-19.53563 -23.46353,-24.0503 -3.49188,-2.07548 -10.06837,-4.93976 -14.61441,-6.36508 -7.48235,-2.34594 -9.37741,-2.54545 -19.99997,-2.10565 -6.454,0.26722 -12.8595,1.00418 -14.2345,1.6377 -2.3312,1.07407 -2.2636,1.11532 1,0.61077 8.5935,-1.32855 25.16902,-1.71989 26.26872,-0.62019 0.6222,0.6222 1.94128,1.13128 2.93128,1.13128 0.99,0 1.8,0.40787 1.8,0.90638 0,0.49851 0.8075,0.69522 1.79444,0.43712 2.38159,-0.6228 13.1971,3.47087 13.88139,5.2541 0.29598,0.77132 1.165,1.4024 1.93116,1.4024 0.76615,0 1.39301,0.45 1.39301,1 0,0.55 0.70156,1 1.55902,1 0.92379,0 1.26829,0.4704 0.84549,1.15451 -0.43435,0.7028 -0.27512,0.88356 0.40698,0.46199 1.41376,-0.87375 7.35235,4.30938 6.50618,5.67852 -0.34468,0.5577 -0.17174,0.73282 0.38431,0.38917 1.05507,-0.65207 7.29802,6.41136 7.29802,8.25717 0,0.58225 0.36714,1.05864 0.81586,1.05864 0.44872,0 1.82751,1.8 3.06398,4 3.33046,5.92574 3.70426,4.85547 0.43257,-1.23853 z m -75.60561,-28.13497 c 1.5777,-1.57767 -1.0514,-1.81784 -3.9668,-0.36237 l -3.24,1.61749 3.2902,-0.31431 c 1.8096,-0.17288 3.5721,-0.59624 3.9166,-0.94081 z"
         id="path4157"
         inkscape:connector-curvature="0" />
      <path
         style="fill:#aa945e"
         d="m -1045.8128,684.68401 c -7.8666,-2.9877 -11.4471,-9.01813 -8.987,-15.13661 1.2381,-3.07925 1.1672,-3.24688 -2.4241,-5.73564 -9.102,-6.30771 -16.7634,-17.2721 -20.3283,-29.0924 -1.1612,-3.85 -3.1324,-8.23048 -4.3804,-9.7344 -8.4625,-10.19731 -9.1395,-34.64321 -1.3805,-49.85197 1.0232,-2.00561 3.1037,-5.12427 4.6234,-6.93035 1.6924,-2.01129 3.4499,-6.03496 4.5354,-10.38353 0.9747,-3.90486 3.8734,-11.36497 6.4415,-16.57802 8.6456,-17.54993 24.8358,-30.58824 44.3556,-35.72055 10.3558,-2.72284 26.44038,-2.21702 36.5,1.14784 26.65258,8.91505 44.44951,30.43693 48.59109,58.76134 1.04321,7.13459 1.71753,8.87146 5.11095,13.16446 4.80087,6.07355 11.95693,20.88391 14.31429,29.62518 2.3555,8.7344 2.43172,18.90414 0.16758,22.35966 -3.13208,4.78017 -9.50902,3.29175 -15.93391,-3.71908 l -2.75,-3.0008 0,3.71166 c 0,4.4361 -3.32575,14.77437 -6.32081,19.64856 -1.18286,1.925 -4.00694,5.77925 -6.27575,8.56501 -3.49853,4.29567 -4.19683,5.93001 -4.59736,10.75984 -0.36517,4.40345 -1.15154,6.53411 -3.46783,9.39596 -7.51399,9.28378 -22.38087,11.25845 -30.12728,4.0016 -2.15459,-2.01843 -3.30687,-2.14666 -19.62007,-2.18339 -16.144,-0.0363 -17.3913,0.0926 -18.211,1.88254 -2.4998,5.45904 -12.228,7.93238 -19.8355,5.04309 z m 58.9556,-13.16877 c 11.99888,-2.73541 22.75937,-8.52785 31.11583,-16.74985 11.4046,-11.2211 15.66639,-23.09974 13.52285,-37.69147 -0.59422,-4.04501 -1.20601,-8.25456 -1.35954,-9.35456 -0.1934,-1.38572 0.29448,-2 1.58849,-2 1.41025,0 2.32108,1.46938 3.71926,6 2.94398,9.53959 13.50861,20.32469 16.02264,16.35701 1.67047,-2.63635 0.87352,-12.30937 -1.71273,-20.78836 -3.86054,-12.65675 -9.82404,-23.62104 -16.42917,-30.20614 -1.055,-1.0518 -1.70702,-3.55551 -1.82296,-7 -0.25322,-7.52276 -3.59737,-19.0249 -7.94232,-27.31744 -4.64543,-8.86601 -15.91955,-20.82288 -24.35347,-25.82828 -18.36025,-10.89653 -41.96018,-11.79381 -60.60248,-2.30413 -18.0862,9.20665 -31.4471,26.81221 -35.3199,46.54081 -0.9955,5.07152 -1.9985,7.1852 -4.6838,9.87054 -1.8794,1.87939 -4.2496,5.35914 -5.267,7.73278 -6.8367,15.94927 -4.2916,41.84532 4.4138,44.91019 4.3365,1.52672 7.5905,-0.98848 11.6337,-8.99244 4.8583,-9.61727 13.7297,-22.47454 15.5073,-22.47454 2.3598,0 1.7182,2.70736 -2.0305,8.56745 -1.925,3.00926 -3.5001,5.57515 -3.5003,5.70197 -2e-4,0.12682 11.8345,0.0756 26.2992,-0.11376 21.1933,-0.27748 26.5174,-0.0819 27.4212,1.00712 2.26108,2.7244 -3.8868,15.5313 -10.1687,21.18279 -7.9997,7.19695 -19.4354,9.56871 -27.9585,5.79856 -2.6135,-1.1561 -6.4684,-3.46148 -8.5663,-5.12307 -3.5291,-2.79512 -4.4162,-3.02106 -11.8615,-3.02106 -4.4259,0 -8.3038,0.41538 -8.6176,0.92306 -0.3137,0.50769 -1.953,1.22673 -3.6428,1.59787 -2.7129,0.59586 -3.0005,0.98512 -2.4576,3.32694 1.3353,5.7598 7.8908,17.36573 12.4568,22.05343 13.3392,13.69492 33.0381,20.25163 58.0961,19.3371 5.225,-0.1907 12.65,-1.06483 16.5,-1.94252 z m -25,-89.92518 c -6.0548,-1.5168 -9.014,-2.88311 -12.0858,-5.58015 -6.0262,-5.29109 -3.7187,-11.96418 5.3466,-15.46195 6.5262,-2.51811 22.66499,-2.50595 29.99436,0.0226 9.82196,3.38846 14.09879,10.6906 8.99484,15.35752 -4.95775,4.53324 -8.80783,5.68945 -19.75,5.93112 -5.775,0.12754 -11.4,0.006 -12.5,-0.26913 z m -26.2775,-17.9274 c -4.8663,-3.40853 -1.5682,-12.46193 4.5275,-12.42799 5.0606,0.0282 7.9475,4.01988 6.2108,8.58772 -1.9676,5.17528 -6.512,6.80047 -10.7383,3.84027 z m 60.72162,-3.28747 c -5.05243,-4.0912 -1.47163,-12.56049 5.22998,-12.36994 6.37328,0.1812 8.96842,7.1625 4.37135,11.75956 -2.91996,2.91997 -6.47037,3.14568 -9.60133,0.61038 z m -43.44412,69.36178 c 4.6792,-1.89434 9.3473,-6.32315 12.5494,-11.90598 1.6125,-2.8114 2.9361,-5.44913 2.9412,-5.86163 0.01,-0.4125 -9.4406,-0.75 -20.9906,-0.75 l -21,0 0,5.81291 c 0,5.05289 0.3596,6.14826 2.75,8.37781 6.7967,6.33922 15.0605,7.84477 23.75,4.32689 z"
         id="path4155"
         inkscape:connector-curvature="0" />
      <path
         style="fill:#d3670d"
         d="m -1042.3572,685.24359 c -5.3292,-1.01512 -9.8003,-3.73735 -11.4831,-6.9915 -1.8405,-3.55927 -1.9654,-8.18369 -0.2669,-9.88417 1.0003,-1.00145 0.3511,-1.98589 -3.25,-4.92818 -6.0723,-4.96141 -10.5179,-9.80314 -14.0491,-15.30111 -2.9994,-4.66983 -6.9509,-14.86278 -6.9509,-17.9298 0,-0.93358 -1.193,-2.98473 -2.6512,-4.55809 -4.6405,-5.00724 -6.6275,-11.03437 -7.1429,-21.66671 -0.2736,-5.64443 0.04,-12.36783 0.7463,-16 1.487,-7.64733 6.2621,-18.0015 9.4631,-20.51936 1.6273,-1.28002 2.7423,-3.70827 3.5826,-7.80187 4.9067,-23.90348 22.9895,-44.5316 46.0372,-52.51742 9.873,-3.42093 27.9159,-3.88383 38.47459,-0.98708 12.54232,3.44094 20.80908,8.32421 30.52701,18.03267 12.20265,12.19078 18.74912,25.43739 20.91535,42.32171 0.72962,5.68694 1.52399,7.64129 4.87756,12 12.66711,16.46375 20.20541,44.30727 14.09781,52.07182 -3.30505,4.20169 -7.36125,3.32647 -14.01018,-3.02302 l -3.58276,-3.42141 -1.24034,6.94051 c -1.59216,8.90916 -5.6202,17.33052 -11.30672,23.63878 -3.99022,4.42648 -4.56082,5.65264 -4.9746,10.68981 -0.63068,7.67775 -4.06698,12.76131 -10.94202,16.18728 -8.07568,4.02428 -17.45792,3.09237 -23.35715,-2.32001 -1.80212,-1.65339 -3.81742,-1.83969 -19.18465,-1.77341 -16.8545,0.0727 -17.19,0.11594 -18.2066,2.34709 -1.873,4.1108 -9.486,6.6576 -16.1224,5.39347 z m 47.82808,-12.0619 c 23.10003,-2.8965 41.37243,-15.17562 49.8423,-33.49422 2.43392,-5.26405 2.75834,-7.14781 2.75005,-15.96811 -0.005,-5.5 -0.38613,-11.9125 -0.84658,-14.25 -0.6846,-3.47539 -0.5652,-4.25 0.65513,-4.25 0.95568,0 2.06484,2.01252 3.0844,5.59651 2.62987,9.24464 11.85208,19.70518 15.97697,18.12231 3.35077,-1.28581 2.74043,-12.20244 -1.38477,-24.76844 -3.19561,-9.7343 -8.58247,-19.41451 -14.4409,-25.95038 -1.63021,-1.81872 -2.42963,-4.34241 -2.93353,-9.2608 -2.76433,-26.98197 -20.27359,-49.36152 -45.4134,-58.0454 -7.18586,-2.48217 -10.27931,-2.99257 -18.61775,-3.07179 -12.1378,-0.11533 -18.3775,1.29815 -29.5,6.68262 -12.421,6.01306 -23.0969,16.84679 -29.3294,29.76286 -2.5033,5.18788 -5.1086,12.35751 -5.7895,15.93251 -0.9307,4.88636 -2.0363,7.36888 -4.4535,10 -6.6204,7.20611 -9.7858,17.33105 -9.6914,31 0.043,6.17517 0.651,10.06636 2.2244,14.22692 2.3918,6.32437 6.6967,10.33402 9.9771,9.29285 3.0821,-0.97821 7.8095,-7.03965 9.7487,-12.49955 0.9807,-2.76112 2.0465,-5.02022 2.3685,-5.02022 0.322,0 2.5789,-3.13349 5.0153,-6.96331 2.4364,-3.82983 4.9551,-7.17641 5.597,-7.43686 2.7597,-1.11957 1.9176,2.65443 -1.7283,7.74586 -2.1664,3.02533 -3.9389,5.77361 -3.9389,6.10729 0,0.33367 11.8125,0.57943 26.25,0.54613 14.4375,-0.0333 26.8125,-0.0467 27.5,-0.0298 3.28035,0.0806 -1.1705,11.85175 -7.0188,18.56257 -4.3078,4.94322 -12.02,9.27187 -17.973,10.08782 -6.2001,0.84981 -14.3429,-1.71635 -19.5272,-6.15391 l -4.2152,-3.6081 -8.7579,0.46405 c -4.8169,0.25523 -10.2698,0.79558 -12.1177,1.20079 -3.2097,0.70381 -3.334,0.89849 -2.7816,4.35712 0.9727,6.08956 7.3919,17.44417 12.9465,22.90033 15.3934,15.12062 39.1519,21.61441 66.52298,18.18238 z m -18.32808,-92.30454 c -12.4973,-3.24722 -17.7647,-9.77644 -12.471,-15.45855 6.8881,-7.39351 26.52579,-9.01888 39.471,-3.26692 11.02791,4.90004 10.35386,14.64089 -1.25165,18.0879 -5.88918,1.74918 -20.11455,2.10142 -25.74835,0.63757 z m -24.2574,-16.76374 c -2.8928,-1.07014 -3.9617,-5.52222 -2.1154,-8.81155 3.4176,-6.08901 11.8728,-4.46136 11.8728,2.28556 0,5.0414 -4.904,8.32135 -9.7574,6.52599 z m 61.7574,-2.58803 c -2.49953,-0.89331 -4,-3.50942 -4,-6.9741 0,-6.36289 8.325,-8.49214 12.2988,-3.14561 1.72809,2.32504 1.83316,3.08089 0.78131,5.62028 -1.59699,3.85548 -5.48758,5.78336 -9.08011,4.49943 z m -47.8992,69.53882 c 1.8696,-0.63534 5.0594,-2.32284 7.0886,-3.75 4.0974,-2.88179 10.8106,-12.34192 10.8106,-15.23415 0,-2.17171 -2.2075,-2.27078 -26.841,-1.20456 l -15.159,0.65613 0,6.29298 c 0,6.01612 0.1539,6.41036 3.498,8.96101 6.557,5.00132 13.9551,6.53768 20.6028,4.27859 z m -30.1008,-9.97294 c -1.375,-0.55074 -3.5125,-0.80962 -4.75,-0.57529 -1.2375,0.23433 -2.25,0.0119 -2.25,-0.4943 0,-0.50619 -0.45,-0.64223 -1,-0.30231 -2.455,1.51725 -0.5489,2.49503 4.75,2.43661 4.871,-0.0537 5.3678,-0.21646 3.25,-1.06471 z m 2,-5.3719 c 0,-4.24396 -0.1565,-4.49964 -2.75,-4.49368 -2.0222,0.005 -3.2143,0.82202 -4.5043,3.08854 -0.9649,1.69521 -1.4626,3.55412 -1.1062,4.13091 0.3598,0.58206 1.2472,-0.23603 1.9944,-1.83853 1.2267,-2.6308 1.3036,-2.6652 0.8661,-0.38724 -0.4202,2.18792 -0.3046,2.12551 0.926,-0.5 l 1.4062,-3 1.0839,2.8151 c 0.5962,1.5483 1.0839,3.2358 1.0839,3.75 0,0.51419 0.225,0.9349 0.5,0.9349 0.275,0 0.5,-2.025 0.5,-4.5 z"
         id="path4153"
         inkscape:connector-curvature="0" />
      <path
         style="fill:#a06227"
         d="m -1042.3572,685.24359 c -5.3292,-1.01512 -9.8003,-3.73735 -11.4831,-6.9915 -1.8405,-3.55927 -1.9654,-8.18369 -0.2669,-9.88417 1.0003,-1.00145 0.3511,-1.98589 -3.25,-4.92818 -6.0723,-4.96141 -10.5179,-9.80314 -14.0491,-15.30111 -2.9994,-4.66983 -6.9509,-14.86278 -6.9509,-17.9298 0,-0.93358 -1.193,-2.98473 -2.6512,-4.55809 -4.6405,-5.00724 -6.6275,-11.03437 -7.1429,-21.66671 -0.2736,-5.64443 0.04,-12.36783 0.7463,-16 1.487,-7.64733 6.2621,-18.0015 9.4631,-20.51936 1.6273,-1.28002 2.7423,-3.70827 3.5826,-7.80187 4.9067,-23.90348 22.9895,-44.5316 46.0372,-52.51742 9.873,-3.42093 27.9159,-3.88383 38.47459,-0.98708 12.54232,3.44094 20.80908,8.32421 30.52701,18.03267 12.20265,12.19078 18.74912,25.43739 20.91535,42.32171 0.72962,5.68694 1.52399,7.64129 4.87756,12 12.66711,16.46375 20.20541,44.30727 14.09781,52.07182 -3.30505,4.20169 -7.36125,3.32647 -14.01018,-3.02302 l -3.58276,-3.42141 -1.24034,6.94051 c -1.59216,8.90916 -5.6202,17.33052 -11.30672,23.63878 -3.99022,4.42648 -4.56082,5.65264 -4.9746,10.68981 -0.63068,7.67775 -4.06698,12.76131 -10.94202,16.18728 -8.07568,4.02428 -17.45792,3.09237 -23.35715,-2.32001 -1.80212,-1.65339 -3.81742,-1.83969 -19.18465,-1.77341 -16.8545,0.0727 -17.19,0.11594 -18.2066,2.34709 -1.873,4.1108 -9.486,6.6576 -16.1224,5.39347 z m 9.1392,-5.93815 c 1.2984,-1.05266 2.1358,-2.08601 1.8608,-2.29634 -0.275,-0.21033 -4.3224,-1.81058 -8.9943,-3.5561 -7.3096,-2.73106 -8.6909,-2.97703 -9.9043,-1.76364 -1.2134,1.21339 -1.1913,1.74384 0.1582,3.80341 3.4442,5.2565 12.5591,7.31533 16.8796,3.81267 z m 67.28709,-2.70271 c 3.89985,-2.46723 6.57371,-6.16164 6.57371,-9.08273 0,-1.74363 -1.46845,-1.64604 -3,0.19936 -0.68469,0.825 -2.06323,1.5 -3.06343,1.5 -1.00019,0 -2.06795,0.40356 -2.3728,0.89681 -0.30484,0.49325 -3.9314,2.12852 -8.05901,3.63395 -7.78588,2.83967 -9.09268,4.02429 -5.25476,4.76351 6.42427,1.23737 11.13813,0.64383 15.17629,-1.9109 z m -28.59821,-3.42104 c 23.10003,-2.8965 41.37243,-15.17562 49.8423,-33.49422 2.43392,-5.26405 2.75834,-7.14781 2.75005,-15.96811 -0.005,-5.5 -0.38613,-11.9125 -0.84658,-14.25 -0.6846,-3.47539 -0.5652,-4.25 0.65513,-4.25 0.95568,0 2.06484,2.01252 3.0844,5.59651 2.62987,9.24464 11.85208,19.70518 15.97697,18.12231 3.35077,-1.28581 2.74043,-12.20244 -1.38477,-24.76844 -3.19561,-9.7343 -8.58247,-19.41451 -14.4409,-25.95038 -1.63021,-1.81872 -2.42963,-4.34241 -2.93353,-9.2608 -2.76433,-26.98197 -20.27359,-49.36152 -45.4134,-58.0454 -7.18586,-2.48217 -10.27931,-2.99257 -18.61775,-3.07179 -12.1378,-0.11533 -18.3775,1.29815 -29.5,6.68262 -12.421,6.01306 -23.0969,16.84679 -29.3294,29.76286 -2.5033,5.18788 -5.1086,12.35751 -5.7895,15.93251 -0.9307,4.88636 -2.0363,7.36888 -4.4535,10 -6.6204,7.20611 -9.7858,17.33105 -9.6914,31 0.043,6.17517 0.651,10.06636 2.2244,14.22692 2.3918,6.32437 6.6967,10.33402 9.9771,9.29285 3.0821,-0.97821 7.8095,-7.03965 9.7487,-12.49955 0.9807,-2.76112 2.0465,-5.02022 2.3685,-5.02022 0.322,0 2.5789,-3.13349 5.0153,-6.96331 2.4364,-3.82983 4.9551,-7.17641 5.597,-7.43686 2.7597,-1.11957 1.9176,2.65443 -1.7283,7.74586 -2.1664,3.02533 -3.9389,5.77361 -3.9389,6.10729 0,0.33367 11.8125,0.57943 26.25,0.54613 14.4375,-0.0333 26.8125,-0.0467 27.5,-0.0298 3.28035,0.0806 -1.1705,11.85175 -7.0188,18.56257 -4.3078,4.94322 -12.02,9.27187 -17.973,10.08782 -6.2001,0.84981 -14.3429,-1.71635 -19.5272,-6.15391 l -4.2152,-3.6081 -8.7579,0.46405 c -4.8169,0.25523 -10.2698,0.79558 -12.1177,1.20079 -3.2097,0.70381 -3.334,0.89849 -2.7816,4.35712 0.9727,6.08956 7.3919,17.44417 12.9465,22.90033 15.3934,15.12062 39.1519,21.61441 66.52298,18.18238 z m -18.32808,-92.30454 c -12.4973,-3.24722 -17.7647,-9.77644 -12.471,-15.45855 6.8881,-7.39351 26.52579,-9.01888 39.471,-3.26692 11.02791,4.90004 10.35386,14.64089 -1.25165,18.0879 -5.88918,1.74918 -20.11455,2.10142 -25.74835,0.63757 z m 26.1379,-6.05649 c 1.72584,-0.89977 3.35074,-2.44984 3.61087,-3.44461 1.05722,-4.04282 -10.61365,-8.21719 -22.68247,-8.11292 -6.0326,0.0521 -14.4802,2.78027 -15.9396,5.14769 -1.4831,2.4061 1.5839,5.48363 7.2966,7.32147 6.113,1.96659 23.27678,1.40201 27.7146,-0.91163 z m -50.3953,-10.70725 c -2.8928,-1.07014 -3.9617,-5.52222 -2.1154,-8.81155 3.4176,-6.08901 11.8728,-4.46136 11.8728,2.28556 0,5.0414 -4.904,8.32135 -9.7574,6.52599 z m 61.7574,-2.58803 c -2.49953,-0.89331 -4,-3.50942 -4,-6.9741 0,-6.36289 8.325,-8.49214 12.2988,-3.14561 1.72809,2.32504 1.83316,3.08089 0.78131,5.62028 -1.59699,3.85548 -5.48758,5.78336 -9.08011,4.49943 z m -47.8992,69.53882 c 1.8696,-0.63534 5.0594,-2.32284 7.0886,-3.75 4.0974,-2.88179 10.8106,-12.34192 10.8106,-15.23415 0,-2.17171 -2.2075,-2.27078 -26.841,-1.20456 l -15.159,0.65613 0,6.29298 c 0,6.01612 0.1539,6.41036 3.498,8.96101 6.557,5.00132 13.9551,6.53768 20.6028,4.27859 z m -28.2205,-14.34484 c 0.2201,-5.44253 0.1924,-5.5 -2.6517,-5.5 -2.7241,0 -4.6364,2.42895 -8.0619,10.23992 -0.1834,0.41805 2.1021,0.76008 5.0788,0.76008 l 5.4122,0 0.2226,-5.5 z"
         id="path4151"
         inkscape:connector-curvature="0" />
      <path
         style="fill:#18100b"
         d="m -1047.8898,683.22164 c -6.2449,-3.09125 -9.0253,-9.22282 -6.4035,-14.1216 0.9285,-1.73505 0.1438,-2.83943 -6.171,-8.68426 -3.9792,-3.68303 -8.6658,-8.94642 -10.4147,-11.69642 -3.4992,-5.50223 -7.4782,-15.41409 -7.4782,-18.62855 0,-1.12944 -1.534,-3.84564 -3.4089,-6.036 -5.0741,-5.92796 -7.0164,-14.22531 -6.3368,-27.07051 0.3761,-7.10804 1.2346,-12.11019 2.7917,-16.26494 2.2165,-5.91439 7.0833,-14.00461 8.8205,-14.66265 0.4898,-0.18554 1.8379,-4.10672 2.9958,-8.71373 6.0449,-24.05083 22.3419,-41.91224 45.8624,-50.26486 8.2098,-2.91547 26.3233,-3.63984 35.7753,-1.43067 12.04806,2.81595 22.88137,8.90315 32.10818,18.04148 12.39324,12.27439 19.17024,26.03468 21.30329,43.25504 0.52649,4.25039 1.55373,7.88344 2.49525,8.82497 5.72043,5.72043 14.33514,22.7207 16.98303,33.51431 2.32379,9.47251 2.13883,17.99441 -0.46233,21.30125 -3.30317,4.19931 -7.36149,3.32604 -13.99923,-3.01233 l -3.57182,-3.41072 -1.24785,6.77896 c -1.61544,8.7758 -5.96156,17.78695 -11.60738,24.06646 -3.90916,4.34793 -4.50114,5.59105 -4.50114,9.45214 0,9.79302 -8.09358,18.15505 -18.79946,19.423 -5.97064,0.70714 -12.61432,-1.34468 -15.98838,-4.93782 -1.96967,-2.09755 -2.65051,-2.19041 -11.90066,-1.62328 -5.3963,0.33086 -13.0243,0.38217 -16.951,0.11403 -6.6911,-0.45692 -7.1834,-0.34907 -7.8392,1.71744 -1.8418,5.80287 -14.0143,8.04888 -22.0539,4.06926 z m 14.1971,-2.06484 c 2.6513,-1.00799 4.2864,-2.57821 4.3202,-4.1487 0.01,-0.39119 -2.1222,-1.35567 -4.7347,-2.14329 -2.6125,-0.78762 -7.1452,-2.38639 -10.0727,-3.55282 -6.0407,-2.40684 -7.1773,-2.12305 -7.1773,1.79207 0,6.26725 10.1685,10.90275 17.6645,8.05274 z m 65.0204,-1.99877 c 4.30233,-1.62204 9.21879,-6.90837 9.92473,-10.67138 0.8375,-4.46422 0.11543,-4.91977 -3.6022,-2.27258 -3.50827,2.4981 -18.67082,8.95903 -21.09076,8.98699 -2.89408,0.0335 -2.96604,1.34582 -0.17473,3.18644 3.10987,2.05066 10.53232,2.4334 14.94296,0.77053 z m -14.85627,-7.85148 c 26.54091,-7.74207 42.17137,-25.97487 42.17137,-49.19253 0,-9.49297 1.04154,-9.99287 5.89984,-2.83169 8.08791,11.92169 15.10016,13.15822 15.10016,2.66273 0,-10.30972 -9.42792,-33.85525 -16.78704,-41.92438 -3.51653,-3.8558 -3.98528,-4.99538 -4.52569,-11.00221 -2.08439,-23.16879 -16.63921,-44.69044 -37.2287,-55.04859 -9.43515,-4.74663 -16.0975,-6.18876 -28.45857,-6.16012 -9.9249,0.023 -12.5944,0.40536 -19.4904,2.79175 -10.6869,3.69824 -17.893,8.23791 -25.5864,16.11862 -10.2118,10.46057 -15.0965,19.49835 -18.5224,34.27092 -1.0985,4.73629 -2.342,7.2362 -4.8444,9.7386 -6.595,6.59493 -10.7818,23.86806 -8.8346,36.44791 1.2784,8.25933 3.7545,13.66461 7.52,16.41639 2.6024,1.90176 2.916,1.92057 6.1681,0.36978 2.6808,-1.27841 4.2386,-3.27757 7.1602,-9.18912 l 3.7341,-7.55525 29.3793,0 c 25.061,0 29.463,0.21828 29.9491,1.48505 0.92467,2.40954 -5.0935,13.9758 -9.6347,18.51703 -10.179,10.179 -24.0891,11.1546 -35.4456,2.48601 -4.0419,-3.08525 -4.9677,-3.34545 -12.7059,-3.57094 -5.7448,-0.16741 -9.5932,0.2485 -12.3464,1.33429 -4.8065,1.89558 -4.8229,2.98319 -0.2001,13.24856 7.0289,15.60801 23.1137,27.30443 44.1083,32.07414 9.3226,2.11796 33.95396,1.27446 43.42043,-1.48695 z m -26.82863,-90.02193 c -12.6123,-2.32254 -19.5514,-9.1002 -15.291,-14.93543 3.2902,-4.50638 8.7765,-6.50265 19.1337,-6.96207 16.06417,-0.71258 28.20631,4.24497 28.1255,11.48345 -0.0434,3.88801 -1.85265,5.96779 -7.27998,8.36856 -5.23346,2.315 -17.64182,3.34307 -24.68822,2.04549 z m 20.65449,-4.5553 c 2.75963,-0.81952 5.87363,-2.43605 6.92002,-3.59229 1.88412,-2.08194 1.87172,-2.12977 -1.2827,-4.94824 -5.79077,-5.17406 -18.89431,-7.21166 -29.27501,-4.55226 -9.4455,2.41985 -12.0813,5.40451 -8.0191,9.08072 5.5148,4.9909 21.52718,7.02024 31.65679,4.01207 z m -49.24169,-15.00268 c -2.1913,-3.3444 -1.132,-7.08403 2.5455,-8.98571 6.7859,-3.50911 12.4208,4.25241 6.8531,9.43947 -3.0687,2.85895 -7.3639,2.65158 -9.3986,-0.45376 z m 61.24219,-2.33602 c -2.30705,-2.54926 -2.06381,-6.71248 0.53357,-9.1323 2.61555,-2.43676 5.56227,-2.60221 8.58893,-0.48226 2.80187,1.96251 3.02104,7.41067 0.39377,9.78831 -2.42729,2.19667 -7.45414,2.10488 -9.51627,-0.17375 z m -41.83299,70.42079 c 4.6194,-2.38881 9.8336,-7.97897 12.6781,-13.59223 1.3749,-2.71333 2.4999,-5.17329 2.4999,-5.46658 0,-0.29328 -9.675,-0.53324 -21.5,-0.53324 l -21.5,0 0,6.82569 c 0,7.79917 1.1546,9.48664 9,13.15335 5.2544,2.45575 13.6589,2.28294 18.822,-0.38699 z m -31.822,-13.09205 0,-5.5 -3.25,0.041 c -2.8892,0.0364 -3.4998,0.57429 -5.5,4.8452 -1.2375,2.6423 -2.25,5.09886 -2.25,5.459 0,0.36014 2.475,0.6548 5.5,0.6548 l 5.5,0 0,-5.5 z"
         id="path4149"
         inkscape:connector-curvature="0" />
    </g>
  </g>
</svg>
